<?xml version="1.0" encoding="UTF-8"?>
<svg width="50px" height="50px" viewBox="0 0 50 50" version="1.1" xmlns="http://www.w3.org/2000/svg" xmlns:xlink="http://www.w3.org/1999/xlink">
    <!-- Generator: Sketch 54.1 (76490) - https://sketchapp.com -->
    <title>Group 35</title>
    <desc>Created with Sketch.</desc>
    <g id="Page-1" stroke="none" stroke-width="1" fill="none" fill-rule="evenodd">
        <g id="Group-35" transform="translate(0.000000, -4.000000)">
            <rect id="Rectangle" stroke="#FFBB00" fill="#FFD76A" x="0.5" y="4.5" width="49" height="49" rx="8"></rect>
            <g id="Group-31" transform="translate(12.000000, 0.000000)" fill-rule="nonzero">
                <path d="M1.35,40.275 C1.35,39.7649974 1.37249977,39.4275008 1.4175,39.2625 C1.46250022,39.0974992 1.56749918,38.9925002 1.7325,38.9475 C1.89750082,38.9024998 2.23499745,38.88 2.745,38.88 L12.6,38.88 C14.400009,38.88 15.697496,38.6025028 16.4925,38.0475 C17.287504,37.4924972 17.685,36.5250069 17.685,35.145 C17.685,34.2749957 17.3550033,33.5475029 16.695,32.9625 C16.0349967,32.3774971 15.0450066,32.0700001 13.725,32.04 C10.934986,31.9499996 8.64750892,31.605003 6.8625,31.005 C5.07749107,30.404997 3.71250472,29.407507 2.7675,28.0125 C1.82249528,26.617493 1.35,24.720012 1.35,22.32 C1.35,19.5899864 2.2799907,17.4375079 4.14,15.8625 C6.0000093,14.2874921 8.80498125,13.5 12.555,13.5 L22.32,13.5 C22.8600027,13.5 23.2199991,13.5149999 23.4,13.545 C23.5800009,13.5750002 23.6924998,13.6649993 23.7375,13.815 C23.7825002,13.9650008 23.805,14.2799976 23.805,14.76 L23.805,16.065 L12.555,16.065 C9.6749856,16.065 7.50000735,16.6049946 6.03,17.685 C4.55999265,18.7650054 3.825,20.30999 3.825,22.32 C3.825,24.8400126 4.52249302,26.6549945 5.9175,27.765 C7.31250697,28.8750055 9.5399847,29.4899994 12.6,29.61 C15.1800129,29.7000005 17.1074936,30.2774947 18.3825,31.3425 C19.6575064,32.4075053 20.295,33.839991 20.295,35.64 C20.295,37.7400105 19.6500064,39.2324956 18.36,40.1175 C17.0699935,41.0025044 15.1500127,41.445 12.6,41.445 L1.35,41.445 L1.35,40.275 Z M12.6,42.435 C15.5700149,42.435 17.7674929,41.9025053 19.1925,40.8375 C20.6175071,39.7724947 21.33,38.040012 21.33,35.64 C21.33,33.2099879 20.6175071,31.4400055 19.1925,30.33 C17.7674929,29.2199944 15.555015,28.5900008 12.555,28.44 C10.0049872,28.44 8.08500645,27.9750047 6.795,27.045 C5.50499355,26.1149954 4.86,24.5400111 4.86,22.32 C4.86,20.5799913 5.5199934,19.2675044 6.84,18.3825 C8.1600066,17.4974956 10.0649875,17.055 12.555,17.055 L23.805,17.055 L23.805,18.225 C23.805,18.7350026 23.7825002,19.0724992 23.7375,19.2375 C23.6924998,19.4025008 23.5875008,19.5074998 23.4225,19.5525 C23.2574992,19.5975002 22.9200025,19.62 22.41,19.62 L12.555,19.62 C10.7849911,19.62 9.49500405,19.8374978 8.685,20.2725 C7.87499595,20.7075022 7.47,21.3899953 7.47,22.32 C7.47,23.5500061 7.84499625,24.4574971 8.595,25.0425 C9.34500375,25.6275029 10.6649905,25.9499997 12.555,26.01 C15.1050127,26.1000005 17.1899919,26.4299972 18.81,27 C20.4300081,27.5700029 21.6674957,28.5449931 22.5225,29.925 C23.3775043,31.3050069 23.805,33.2099879 23.805,35.64 C23.805,38.6700151 22.8300097,40.987492 20.88,42.5925 C18.9299902,44.197508 16.1700178,45 12.6,45 L2.835,45 C2.2949973,45 1.9350009,44.9850002 1.755,44.955 C1.5749991,44.9249998 1.46250022,44.8350007 1.4175,44.685 C1.37249977,44.5349992 1.35,44.2200024 1.35,43.74 L1.35,42.435 L12.6,42.435 Z" id="S" stroke="#FF0072" stroke-width="5" fill="#FF0072"></path>
                <path d="M1.35,40.275 C1.35,39.7649974 1.37249977,39.4275008 1.4175,39.2625 C1.46250022,39.0974992 1.56749918,38.9925002 1.7325,38.9475 C1.89750082,38.9024998 2.23499745,38.88 2.745,38.88 L12.6,38.88 C14.400009,38.88 15.697496,38.6025028 16.4925,38.0475 C17.287504,37.4924972 17.685,36.5250069 17.685,35.145 C17.685,34.2749957 17.3550033,33.5475029 16.695,32.9625 C16.0349967,32.3774971 15.0450066,32.0700001 13.725,32.04 C10.934986,31.9499996 8.64750892,31.605003 6.8625,31.005 C5.07749107,30.404997 3.71250472,29.407507 2.7675,28.0125 C1.82249528,26.617493 1.35,24.720012 1.35,22.32 C1.35,19.5899864 2.2799907,17.4375079 4.14,15.8625 C6.0000093,14.2874921 8.80498125,13.5 12.555,13.5 L22.32,13.5 C22.8600027,13.5 23.2199991,13.5149999 23.4,13.545 C23.5800009,13.5750002 23.6924998,13.6649993 23.7375,13.815 C23.7825002,13.9650008 23.805,14.2799976 23.805,14.76 L23.805,16.065 L12.555,16.065 C9.6749856,16.065 7.50000735,16.6049946 6.03,17.685 C4.55999265,18.7650054 3.825,20.30999 3.825,22.32 C3.825,24.8400126 4.52249302,26.6549945 5.9175,27.765 C7.31250697,28.8750055 9.5399847,29.4899994 12.6,29.61 C15.1800129,29.7000005 17.1074936,30.2774947 18.3825,31.3425 C19.6575064,32.4075053 20.295,33.839991 20.295,35.64 C20.295,37.7400105 19.6500064,39.2324956 18.36,40.1175 C17.0699935,41.0025044 15.1500127,41.445 12.6,41.445 L1.35,41.445 L1.35,40.275 Z M12.6,42.435 C15.5700149,42.435 17.7674929,41.9025053 19.1925,40.8375 C20.6175071,39.7724947 21.33,38.040012 21.33,35.64 C21.33,33.2099879 20.6175071,31.4400055 19.1925,30.33 C17.7674929,29.2199944 15.555015,28.5900008 12.555,28.44 C10.0049872,28.44 8.08500645,27.9750047 6.795,27.045 C5.50499355,26.1149954 4.86,24.5400111 4.86,22.32 C4.86,20.5799913 5.5199934,19.2675044 6.84,18.3825 C8.1600066,17.4974956 10.0649875,17.055 12.555,17.055 L23.805,17.055 L23.805,18.225 C23.805,18.7350026 23.7825002,19.0724992 23.7375,19.2375 C23.6924998,19.4025008 23.5875008,19.5074998 23.4225,19.5525 C23.2574992,19.5975002 22.9200025,19.62 22.41,19.62 L12.555,19.62 C10.7849911,19.62 9.49500405,19.8374978 8.685,20.2725 C7.87499595,20.7075022 7.47,21.3899953 7.47,22.32 C7.47,23.5500061 7.84499625,24.4574971 8.595,25.0425 C9.34500375,25.6275029 10.6649905,25.9499997 12.555,26.01 C15.1050127,26.1000005 17.1899919,26.4299972 18.81,27 C20.4300081,27.5700029 21.6674957,28.5449931 22.5225,29.925 C23.3775043,31.3050069 23.805,33.2099879 23.805,35.64 C23.805,38.6700151 22.8300097,40.987492 20.88,42.5925 C18.9299902,44.197508 16.1700178,45 12.6,45 L2.835,45 C2.2949973,45 1.9350009,44.9850002 1.755,44.955 C1.5749991,44.9249998 1.46250022,44.8350007 1.4175,44.685 C1.37249977,44.5349992 1.35,44.2200024 1.35,43.74 L1.35,42.435 L12.6,42.435 Z" id="S" fill="#FFF9E9"></path>
            </g>
        </g>
    </g>
</svg>