<?xml version="1.0" encoding="UTF-8"?>
<svg width="404px" height="218px" viewBox="0 0 404 218" version="1.1" xmlns="http://www.w3.org/2000/svg" xmlns:xlink="http://www.w3.org/1999/xlink">
    <!-- Generator: Sketch 54.1 (76490) - https://sketchapp.com -->
    <title>Group 29 Copy</title>
    <desc>Created with Sketch.</desc>
    <defs>
        <path d="M131.35,198.275 C131.35,197.764997 131.3725,197.427501 131.4175,197.2625 C131.4625,197.097499 131.567499,196.9925 131.7325,196.9475 C131.897501,196.9025 132.234997,196.88 132.745,196.88 L142.6,196.88 C144.400009,196.88 145.697496,196.602503 146.4925,196.0475 C147.287504,195.492497 147.685,194.525007 147.685,193.145 C147.685,192.274996 147.355003,191.547503 146.695,190.9625 C146.034997,190.377497 145.045007,190.07 143.725,190.04 C140.934986,189.95 138.647509,189.605003 136.8625,189.005 C135.077491,188.404997 133.712505,187.407507 132.7675,186.0125 C131.822495,184.617493 131.35,182.720012 131.35,180.32 C131.35,177.589986 132.279991,175.437508 134.14,173.8625 C136.000009,172.287492 138.804981,171.5 142.555,171.5 L152.32,171.5 C152.860003,171.5 153.219999,171.515 153.4,171.545 C153.580001,171.575 153.6925,171.664999 153.7375,171.815 C153.7825,171.965001 153.805,172.279998 153.805,172.76 L153.805,174.065 L142.555,174.065 C139.674986,174.065 137.500007,174.604995 136.03,175.685 C134.559993,176.765005 133.825,178.30999 133.825,180.32 C133.825,182.840013 134.522493,184.654994 135.9175,185.765 C137.312507,186.875006 139.539985,187.489999 142.6,187.61 C145.180013,187.7 147.107494,188.277495 148.3825,189.3425 C149.657506,190.407505 150.295,191.839991 150.295,193.64 C150.295,195.74001 149.650006,197.232496 148.36,198.1175 C147.069994,199.002504 145.150013,199.445 142.6,199.445 L131.35,199.445 L131.35,198.275 Z M142.6,200.435 C145.570015,200.435 147.767493,199.902505 149.1925,198.8375 C150.617507,197.772495 151.33,196.040012 151.33,193.64 C151.33,191.209988 150.617507,189.440006 149.1925,188.33 C147.767493,187.219994 145.555015,186.590001 142.555,186.44 C140.004987,186.44 138.085006,185.975005 136.795,185.045 C135.504994,184.114995 134.86,182.540011 134.86,180.32 C134.86,178.579991 135.519993,177.267504 136.84,176.3825 C138.160007,175.497496 140.064988,175.055 142.555,175.055 L153.805,175.055 L153.805,176.225 C153.805,176.735003 153.7825,177.072499 153.7375,177.2375 C153.6925,177.402501 153.587501,177.5075 153.4225,177.5525 C153.257499,177.5975 152.920003,177.62 152.41,177.62 L142.555,177.62 C140.784991,177.62 139.495004,177.837498 138.685,178.2725 C137.874996,178.707502 137.47,179.389995 137.47,180.32 C137.47,181.550006 137.844996,182.457497 138.595,183.0425 C139.345004,183.627503 140.664991,183.95 142.555,184.01 C145.105013,184.1 147.189992,184.429997 148.81,185 C150.430008,185.570003 151.667496,186.544993 152.5225,187.925 C153.377504,189.305007 153.805,191.209988 153.805,193.64 C153.805,196.670015 152.83001,198.987492 150.88,200.5925 C148.92999,202.197508 146.170018,203 142.6,203 L132.835,203 C132.294997,203 131.935001,202.985 131.755,202.955 C131.574999,202.925 131.4625,202.835001 131.4175,202.685 C131.3725,202.534999 131.35,202.220002 131.35,201.74 L131.35,200.435 L142.6,200.435 Z M167.755,203 C165.71499,203 163.832509,202.497505 162.1075,201.4925 C160.382491,200.487495 159.017505,199.122509 158.0125,197.3975 C157.007495,195.672491 156.505,193.79001 156.505,191.75 C156.505,189.70999 157.007495,187.827509 158.0125,186.1025 C159.017505,184.377491 160.382491,183.012505 162.1075,182.0075 C163.832509,181.002495 165.71499,180.5 167.755,180.5 C169.79501,180.5 171.677491,181.002495 173.4025,182.0075 C175.127509,183.012505 176.492495,184.377491 177.4975,186.1025 C178.502505,187.827509 179.005,189.70999 179.005,191.75 C179.005,193.79001 178.502505,195.672491 177.4975,197.3975 C176.492495,199.122509 175.127509,200.487495 173.4025,201.4925 C171.677491,202.497505 169.79501,203 167.755,203 Z M167.755,200.57 C169.375008,200.57 170.859993,200.180004 172.21,199.4 C173.560007,198.619996 174.624996,197.555007 175.405,196.205 C176.185004,194.854993 176.575,193.370008 176.575,191.75 C176.575,190.129992 176.185004,188.645007 175.405,187.295 C174.624996,185.944993 173.560007,184.880004 172.21,184.1 C170.859993,183.319996 169.375008,182.93 167.755,182.93 C166.134992,182.93 164.650007,183.319996 163.3,184.1 C161.949993,184.880004 160.885004,185.944993 160.105,187.295 C159.324996,188.645007 158.935,190.129992 158.935,191.75 C158.935,193.370008 159.324996,194.854993 160.105,196.205 C160.885004,197.555007 161.949993,198.619996 163.3,199.4 C164.650007,200.180004 166.134992,200.57 167.755,200.57 Z M167.755,199.535 C166.314993,199.535 165.002506,199.190003 163.8175,198.5 C162.632494,197.809997 161.695003,196.872506 161.005,195.6875 C160.314997,194.502494 159.97,193.190007 159.97,191.75 C159.97,190.309993 160.314997,188.997506 161.005,187.8125 C161.695003,186.627494 162.632494,185.690003 163.8175,185 C165.002506,184.309997 166.314993,183.965 167.755,183.965 C169.195007,183.965 170.507494,184.309997 171.6925,185 C172.877506,185.690003 173.814997,186.627494 174.505,187.8125 C175.195003,188.997506 175.54,190.309993 175.54,191.75 C175.54,193.190007 175.195003,194.502494 174.505,195.6875 C173.814997,196.872506 172.877506,197.809997 171.6925,198.5 C170.507494,199.190003 169.195007,199.535 167.755,199.535 Z M167.755,196.97 C169.225007,196.97 170.462495,196.467505 171.4675,195.4625 C172.472505,194.457495 172.975,193.220007 172.975,191.75 C172.975,190.279993 172.472505,189.042505 171.4675,188.0375 C170.462495,187.032495 169.225007,186.53 167.755,186.53 C166.284993,186.53 165.047505,187.032495 164.0425,188.0375 C163.037495,189.042505 162.535,190.279993 162.535,191.75 C162.535,193.220007 163.037495,194.457495 164.0425,195.4625 C165.047505,196.467505 166.284993,196.97 167.755,196.97 Z M181.705,181.985 C181.705,181.444997 181.72,181.085001 181.75,180.905 C181.78,180.724999 181.869999,180.6125 182.02,180.5675 C182.170001,180.5225 182.484998,180.5 182.965,180.5 L184.27,180.5 L184.27,191.75 C184.27,194.690015 184.832494,196.879993 185.9575,198.32 C187.082506,199.760007 188.844988,200.48 191.245,200.48 C193.645012,200.48 195.407494,199.760007 196.5325,198.32 C197.657506,196.879993 198.22,194.690015 198.22,191.75 L198.22,180.5 L199.525,180.5 C200.005002,180.5 200.319999,180.5225 200.47,180.5675 C200.620001,180.6125 200.71,180.724999 200.74,180.905 C200.77,181.085001 200.785,181.444997 200.785,181.985 L200.785,191.75 C200.785,199.220037 197.605032,202.955 191.245,202.955 C188.214985,202.955 185.867508,201.97251 184.2025,200.0075 C182.537492,198.04249 181.705,195.290018 181.705,191.75 L181.705,181.985 Z M186.43,180.5 C186.940003,180.5 187.277499,180.5225 187.4425,180.5675 C187.607501,180.6125 187.7125,180.717499 187.7575,180.8825 C187.8025,181.047501 187.825,181.384997 187.825,181.895 L187.825,191.75 C187.825,193.580009 188.057498,194.884996 188.5225,195.665 C188.987502,196.445004 189.894993,196.835 191.245,196.835 C192.595007,196.835 193.502498,196.445004 193.9675,195.665 C194.432502,194.884996 194.665,193.580009 194.665,191.75 L194.665,181.895 C194.665,181.384997 194.6875,181.047501 194.7325,180.8825 C194.7775,180.717499 194.882499,180.6125 195.0475,180.5675 C195.212501,180.5225 195.549997,180.5 196.06,180.5 L197.23,180.5 L197.23,191.75 C197.23,194.300013 196.765005,196.219994 195.835,197.51 C194.904995,198.800006 193.375011,199.445 191.245,199.445 C189.114989,199.445 187.585005,198.792507 186.655,197.4875 C185.724995,196.182493 185.26,194.270013 185.26,191.75 L185.26,180.5 L186.43,180.5 Z M206.05,180.5 L206.05,203 L205.06,203 C204.489997,203 204.107501,202.97 203.9125,202.91 C203.717499,202.85 203.5975,202.700001 203.5525,202.46 C203.5075,202.219999 203.485,201.725004 203.485,200.975 L203.485,181.985 C203.485,181.444997 203.5,181.085001 203.53,180.905 C203.56,180.724999 203.649999,180.6125 203.8,180.5675 C203.950001,180.5225 204.264998,180.5 204.745,180.5 L206.05,180.5 Z M208.21,180.5 C208.720003,180.5 209.057499,180.5225 209.2225,180.5675 C209.387501,180.6125 209.4925,180.717499 209.5375,180.8825 C209.5825,181.047501 209.605,181.384997 209.605,181.895 L209.605,200.795 C209.605,201.605004 209.5825,202.144999 209.5375,202.415 C209.4925,202.685001 209.372501,202.85 209.1775,202.91 C208.982499,202.97 208.600003,203 208.03,203 L207.04,203 L207.04,180.5 L208.21,180.5 Z M211.63,180.5 C214.300013,180.5 216.452492,180.867496 218.0875,181.6025 C219.722508,182.337504 220.937496,183.529992 221.7325,185.18 C222.527504,186.830008 222.925,189.019986 222.925,191.75 L222.925,201.515 C222.925,202.055003 222.91,202.414999 222.88,202.595 C222.85,202.775001 222.760001,202.8875 222.61,202.9325 C222.459999,202.9775 222.145002,203 221.665,203 L220.36,203 L220.36,191.75 C220.36,189.559989 220.037503,187.820006 219.3925,186.53 C218.747497,185.239994 217.727507,184.317503 216.3325,183.7625 C214.937493,183.207497 213.055012,182.93 210.685,182.93 L210.685,180.95 C210.685,180.709999 210.7225,180.575 210.7975,180.545 C210.8725,180.515 211.149998,180.5 211.63,180.5 Z M210.685,183.965 C212.845011,183.965 214.554994,184.219997 215.815,184.73 C217.075006,185.240003 217.982497,186.057494 218.5375,187.1825 C219.092503,188.307506 219.37,189.82999 219.37,191.75 L219.37,203 L218.2,203 C217.689997,203 217.352501,202.9775 217.1875,202.9325 C217.022499,202.8875 216.9175,202.782501 216.8725,202.6175 C216.8275,202.452499 216.805,202.115003 216.805,201.605 L216.805,191.75 C216.805,190.369993 216.677501,189.335003 216.4225,188.645 C216.167499,187.954997 215.680004,187.452502 214.96,187.1375 C214.239996,186.822498 213.160007,186.635 211.72,186.575 C211.209997,186.545 210.91,186.5075 210.82,186.4625 C210.73,186.4175 210.685,186.290001 210.685,186.08 L210.685,183.965 Z M246.865,171.5 C247.345002,171.5 247.659999,171.5225 247.81,171.5675 C247.960001,171.6125 248.05,171.724999 248.08,171.905 C248.11,172.085001 248.125,172.444997 248.125,172.985 L248.125,191.75 C248.125,194.090012 247.652505,196.107492 246.7075,197.8025 C245.762495,199.497508 244.442508,200.787496 242.7475,201.6725 C241.052492,202.557504 239.095011,203 236.875,203 C234.83499,203 232.952509,202.497505 231.2275,201.4925 C229.502491,200.487495 228.137505,199.122509 227.1325,197.3975 C226.127495,195.672491 225.625,193.79001 225.625,191.75 C225.625,189.70999 226.127495,187.827509 227.1325,186.1025 C228.137505,184.377491 229.502491,183.012505 231.2275,182.0075 C232.952509,181.002495 234.83499,180.5 236.875,180.5 C237.985006,180.5 239.109994,180.664998 240.25,180.995 C240.28,180.995 240.369999,181.0175 240.52,181.0625 C240.670001,181.1075 240.79,181.189999 240.88,181.31 C240.97,181.430001 241.015,181.564999 241.015,181.715 L241.015,184.01 C239.754994,183.289996 238.330008,182.93 236.74,182.93 C235.119992,182.93 233.635007,183.319996 232.285,184.1 C230.934993,184.880004 229.870004,185.944993 229.09,187.295 C228.309996,188.645007 227.92,190.129992 227.92,191.75 C227.92,193.370008 228.309996,194.854993 229.09,196.205 C229.870004,197.555007 230.934993,198.619996 232.285,199.4 C233.635007,200.180004 235.119992,200.57 236.74,200.57 C239.500014,200.57 241.659992,199.812508 243.22,198.2975 C244.780008,196.782492 245.56,194.585014 245.56,191.705 L245.56,171.5 L246.865,171.5 Z M236.74,196.97 C238.480009,196.97 239.792496,196.557504 240.6775,195.7325 C241.562504,194.907496 242.005,193.565009 242.005,191.705 L242.005,172.895 C242.005,172.384997 242.0275,172.047501 242.0725,171.8825 C242.1175,171.717499 242.222499,171.6125 242.3875,171.5675 C242.552501,171.5225 242.889997,171.5 243.4,171.5 L244.57,171.5 L244.57,191.705 C244.57,194.285013 243.887507,196.234993 242.5225,197.555 C241.157493,198.875007 239.245012,199.535 236.785,199.535 C235.344993,199.535 234.032506,199.190003 232.8475,198.5 C231.662494,197.809997 230.725003,196.872506 230.035,195.6875 C229.344997,194.502494 229,193.190007 229,191.75 C229,190.309993 229.344997,188.997506 230.035,187.8125 C230.725003,186.627494 231.662494,185.690003 232.8475,185 C234.032506,184.309997 235.344993,183.965 236.785,183.965 C238.315008,183.965 239.724994,184.369996 241.015,185.18 L241.015,187.79 C241.015,188.090001 240.955001,188.24 240.835,188.24 C240.775,188.24 240.640001,188.165001 240.43,188.015 C239.379995,187.024995 238.150007,186.53 236.74,186.53 C235.269993,186.53 234.032505,187.032495 233.0275,188.0375 C232.022495,189.042505 231.52,190.279993 231.52,191.75 C231.52,193.220007 232.022495,194.457495 233.0275,195.4625 C234.032505,196.467505 235.269993,196.97 236.74,196.97 Z M262.3,199.445 C260.469991,199.445 259.165004,199.43 258.385,199.4 C257.604996,199.37 257.020002,199.272501 256.63,199.1075 C256.239998,198.942499 256.045,198.665002 256.045,198.275 C256.015,197.584997 256.03,197.120001 256.09,196.88 C256.15,196.639999 256.254999,196.415001 256.405,196.205 C256.555001,195.994999 256.66,195.830001 256.72,195.71 L268.915,176.72 C269.335002,176.029997 269.545,175.520002 269.545,175.19 C269.545,174.649997 269.192504,174.327501 268.4875,174.2225 C267.782496,174.117499 266.485009,174.065 264.595,174.065 L252.445,174.065 L252.445,172.76 C252.445,172.279998 252.4675,171.965001 252.5125,171.815 C252.5575,171.664999 252.669999,171.575 252.85,171.545 C253.030001,171.515 253.389997,171.5 253.93,171.5 L265.585,171.5 C268.045012,171.5 269.754995,171.515 270.715,171.545 C271.675005,171.575 272.319998,171.657499 272.65,171.7925 C272.980002,171.927501 273.16,172.159998 273.19,172.49 C273.22,172.940002 273.235,173.449997 273.235,174.02 C273.235,174.440002 273.19,174.769999 273.1,175.01 C273.01,175.250001 272.815001,175.624997 272.515,176.135 L260.275,195.53 C260.004999,196.010002 259.87,196.309999 259.87,196.43 C259.87,196.640001 260.102498,196.7675 260.5675,196.8125 C261.032502,196.8575 262.059992,196.88 263.65,196.88 L271.255,196.88 C271.765003,196.88 272.102499,196.9025 272.2675,196.9475 C272.432501,196.9925 272.5375,197.097499 272.5825,197.2625 C272.6275,197.427501 272.65,197.764997 272.65,198.275 L272.65,199.445 L262.3,199.445 Z M272.65,201.74 C272.65,202.220002 272.6275,202.534999 272.5825,202.685 C272.5375,202.835001 272.425001,202.925 272.245,202.955 C272.064999,202.985 271.705003,203 271.165,203 L260.635,203 C257.694985,203 255.617506,202.97 254.4025,202.91 C253.187494,202.85 252.287503,202.692501 251.7025,202.4375 C251.117497,202.182499 250.825,201.755003 250.825,201.155 L250.825,199.67 C250.825,198.589995 250.884999,197.855002 251.005,197.465 C251.125001,197.074998 251.454997,196.490004 251.995,195.71 L262.975,179.42 C263.035,179.36 263.177499,179.180002 263.4025,178.88 C263.627501,178.579998 263.74,178.325001 263.74,178.115 C263.74,177.784998 263.425003,177.62 262.795,177.62 L253.84,177.62 C253.329997,177.62 252.992501,177.5975 252.8275,177.5525 C252.662499,177.5075 252.5575,177.402501 252.5125,177.2375 C252.4675,177.072499 252.445,176.735003 252.445,176.225 L252.445,175.055 L264.595,175.055 C266.065007,175.055 267.039998,175.085 267.52,175.145 C268.000002,175.205 268.24,175.369999 268.24,175.64 C268.24,175.850001 268.075002,176.209997 267.745,176.72 L255.415,195.665 C255.084998,196.205003 254.8825,196.587499 254.8075,196.8125 C254.7325,197.037501 254.695,197.449997 254.695,198.05 C254.695,198.920004 254.807499,199.497499 255.0325,199.7825 C255.257501,200.067501 255.827495,200.2475 256.7425,200.3225 C257.657505,200.3975 259.509986,200.435 262.3,200.435 L272.65,200.435 L272.65,201.74 Z" id="path-1"></path>
    </defs>
    <g id="Page-1" stroke="none" stroke-width="1" fill="none" fill-rule="evenodd">
        <g id="Group-29-Copy">
            <rect id="Rectangle" stroke="#222222" stroke-width="10" fill="#333333" x="5" y="5" width="394" height="208" rx="20"></rect>
            <path d="M66.3048021,161.5 L88.9465599,205.543784 C91.7735341,211.042943 97.4378262,214.5 103.621073,214.5 L304.845244,214.5 C311.462699,214.5 317.439995,210.546432 320.029493,204.45667 L338.295597,161.5 L66.3048021,161.5 Z" id="Rectangle" stroke="#222222" stroke-width="7" fill="#3A3A3A" transform="translate(202.500000, 188.000000) scale(1, -1) translate(-202.500000, -188.000000) "></path>
            <g id="SoundZ" fill-rule="nonzero" fill="#FF0072">
                <use xlink:href="#path-1"></use>
                <use stroke="#FF0072" stroke-width="5" xlink:href="#path-1"></use>
            </g>
            <g id="Group-10" transform="translate(24.000000, 22.000000)">
                <rect id="Rectangle" fill="#FFF9E9" x="0" y="0" width="356" height="130" rx="20"></rect>
                <rect id="Rectangle" fill="#FF0072" x="0" y="82" width="356" height="15"></rect>
                <rect id="Rectangle-Copy-8" fill="#FF0072" x="0" y="33" width="356" height="15"></rect>
                <rect id="Rectangle-Copy-9" fill="#FFD76A" x="0" y="50" width="356" height="30"></rect>
            </g>
            <g id="Group-8" transform="translate(97.000000, 49.000000)">
                <rect id="Rectangle" stroke="#FFF9E9" stroke-width="1.5" fill="#333333" x="0.75" y="0.75" width="208.5" height="73.5" rx="7"></rect>
                <g id="Group-6" transform="translate(12.409091, 9.375000)" stroke="#222222">
                    <ellipse id="Oval" stroke-width="5" fill="#FFF9E9" cx="28.6363636" cy="28.125" rx="28.6363636" ry="28.125"></ellipse>
                    <rect id="Rectangle" fill="#222222" x="24.3636364" y="0.5" width="8.54545455" height="13.0625" rx="3"></rect>
                    <rect id="Rectangle-Copy" fill="#222222" x="24.3636364" y="42.6875" width="8.54545455" height="13.0625" rx="3"></rect>
                    <path d="M48.4261364,21.4659091 C47.0454245,21.4659091 45.9261364,22.5851972 45.9261364,23.9659091 L45.9261364,32.2840909 C45.9261364,33.6648028 47.0454245,34.7840909 48.4261364,34.7840909 L51.8011364,34.7840909 C53.1818482,34.7840909 54.3011364,33.6648028 54.3011364,32.2840909 L54.3011364,23.9659091 C54.3011364,22.5851972 53.1818482,21.4659091 51.8011364,21.4659091 L48.4261364,21.4659091 Z" id="Rectangle-Copy-5" fill="#222222" transform="translate(50.113636, 28.125000) rotate(90.000000) translate(-50.113636, -28.125000) "></path>
                    <path d="M5.47159091,21.4659091 C4.09087903,21.4659091 2.97159091,22.5851972 2.97159091,23.9659091 L2.97159091,32.2840909 C2.97159091,33.6648028 4.09087903,34.7840909 5.47159091,34.7840909 L8.84659091,34.7840909 C10.2273028,34.7840909 11.3465909,33.6648028 11.3465909,32.2840909 L11.3465909,23.9659091 C11.3465909,22.5851972 10.2273028,21.4659091 8.84659091,21.4659091 L5.47159091,21.4659091 Z" id="Rectangle-Copy-7" fill="#222222" transform="translate(7.159091, 28.125000) rotate(90.000000) translate(-7.159091, -28.125000) "></path>
                </g>
                <g id="Group-5" transform="translate(140.318182, 9.375000)" stroke="#222222">
                    <ellipse id="Oval" stroke-width="5" fill="#FFF9E9" cx="28.6363636" cy="28.125" rx="28.6363636" ry="28.125"></ellipse>
                    <rect id="Rectangle" fill="#222222" x="24.3636364" y="0.5" width="8.54545455" height="13.0625" rx="3"></rect>
                    <rect id="Rectangle-Copy" fill="#222222" x="24.3636364" y="42.6875" width="8.54545455" height="13.0625" rx="3"></rect>
                    <path d="M48.4261364,21.4659091 C47.0454245,21.4659091 45.9261364,22.5851972 45.9261364,23.9659091 L45.9261364,32.2840909 C45.9261364,33.6648028 47.0454245,34.7840909 48.4261364,34.7840909 L51.8011364,34.7840909 C53.1818482,34.7840909 54.3011364,33.6648028 54.3011364,32.2840909 L54.3011364,23.9659091 C54.3011364,22.5851972 53.1818482,21.4659091 51.8011364,21.4659091 L48.4261364,21.4659091 Z" id="Rectangle-Copy-5" fill="#222222" transform="translate(50.113636, 28.125000) rotate(90.000000) translate(-50.113636, -28.125000) "></path>
                    <path d="M5.47159091,21.4659091 C4.09087903,21.4659091 2.97159091,22.5851972 2.97159091,23.9659091 L2.97159091,32.2840909 C2.97159091,33.6648028 4.09087903,34.7840909 5.47159091,34.7840909 L8.84659091,34.7840909 C10.2273028,34.7840909 11.3465909,33.6648028 11.3465909,32.2840909 L11.3465909,23.9659091 C11.3465909,22.5851972 10.2273028,21.4659091 8.84659091,21.4659091 L5.47159091,21.4659091 Z" id="Rectangle-Copy-7" fill="#222222" transform="translate(7.159091, 28.125000) rotate(90.000000) translate(-7.159091, -28.125000) "></path>
                </g>
            </g>
            <path d="M131.35,198.275 C131.35,197.764997 131.3725,197.427501 131.4175,197.2625 C131.4625,197.097499 131.567499,196.9925 131.7325,196.9475 C131.897501,196.9025 132.234997,196.88 132.745,196.88 L142.6,196.88 C144.400009,196.88 145.697496,196.602503 146.4925,196.0475 C147.287504,195.492497 147.685,194.525007 147.685,193.145 C147.685,192.274996 147.355003,191.547503 146.695,190.9625 C146.034997,190.377497 145.045007,190.07 143.725,190.04 C140.934986,189.95 138.647509,189.605003 136.8625,189.005 C135.077491,188.404997 133.712505,187.407507 132.7675,186.0125 C131.822495,184.617493 131.35,182.720012 131.35,180.32 C131.35,177.589986 132.279991,175.437508 134.14,173.8625 C136.000009,172.287492 138.804981,171.5 142.555,171.5 L152.32,171.5 C152.860003,171.5 153.219999,171.515 153.4,171.545 C153.580001,171.575 153.6925,171.664999 153.7375,171.815 C153.7825,171.965001 153.805,172.279998 153.805,172.76 L153.805,174.065 L142.555,174.065 C139.674986,174.065 137.500007,174.604995 136.03,175.685 C134.559993,176.765005 133.825,178.30999 133.825,180.32 C133.825,182.840013 134.522493,184.654994 135.9175,185.765 C137.312507,186.875006 139.539985,187.489999 142.6,187.61 C145.180013,187.7 147.107494,188.277495 148.3825,189.3425 C149.657506,190.407505 150.295,191.839991 150.295,193.64 C150.295,195.74001 149.650006,197.232496 148.36,198.1175 C147.069994,199.002504 145.150013,199.445 142.6,199.445 L131.35,199.445 L131.35,198.275 Z M142.6,200.435 C145.570015,200.435 147.767493,199.902505 149.1925,198.8375 C150.617507,197.772495 151.33,196.040012 151.33,193.64 C151.33,191.209988 150.617507,189.440006 149.1925,188.33 C147.767493,187.219994 145.555015,186.590001 142.555,186.44 C140.004987,186.44 138.085006,185.975005 136.795,185.045 C135.504994,184.114995 134.86,182.540011 134.86,180.32 C134.86,178.579991 135.519993,177.267504 136.84,176.3825 C138.160007,175.497496 140.064988,175.055 142.555,175.055 L153.805,175.055 L153.805,176.225 C153.805,176.735003 153.7825,177.072499 153.7375,177.2375 C153.6925,177.402501 153.587501,177.5075 153.4225,177.5525 C153.257499,177.5975 152.920003,177.62 152.41,177.62 L142.555,177.62 C140.784991,177.62 139.495004,177.837498 138.685,178.2725 C137.874996,178.707502 137.47,179.389995 137.47,180.32 C137.47,181.550006 137.844996,182.457497 138.595,183.0425 C139.345004,183.627503 140.664991,183.95 142.555,184.01 C145.105013,184.1 147.189992,184.429997 148.81,185 C150.430008,185.570003 151.667496,186.544993 152.5225,187.925 C153.377504,189.305007 153.805,191.209988 153.805,193.64 C153.805,196.670015 152.83001,198.987492 150.88,200.5925 C148.92999,202.197508 146.170018,203 142.6,203 L132.835,203 C132.294997,203 131.935001,202.985 131.755,202.955 C131.574999,202.925 131.4625,202.835001 131.4175,202.685 C131.3725,202.534999 131.35,202.220002 131.35,201.74 L131.35,200.435 L142.6,200.435 Z M167.755,203 C165.71499,203 163.832509,202.497505 162.1075,201.4925 C160.382491,200.487495 159.017505,199.122509 158.0125,197.3975 C157.007495,195.672491 156.505,193.79001 156.505,191.75 C156.505,189.70999 157.007495,187.827509 158.0125,186.1025 C159.017505,184.377491 160.382491,183.012505 162.1075,182.0075 C163.832509,181.002495 165.71499,180.5 167.755,180.5 C169.79501,180.5 171.677491,181.002495 173.4025,182.0075 C175.127509,183.012505 176.492495,184.377491 177.4975,186.1025 C178.502505,187.827509 179.005,189.70999 179.005,191.75 C179.005,193.79001 178.502505,195.672491 177.4975,197.3975 C176.492495,199.122509 175.127509,200.487495 173.4025,201.4925 C171.677491,202.497505 169.79501,203 167.755,203 Z M167.755,200.57 C169.375008,200.57 170.859993,200.180004 172.21,199.4 C173.560007,198.619996 174.624996,197.555007 175.405,196.205 C176.185004,194.854993 176.575,193.370008 176.575,191.75 C176.575,190.129992 176.185004,188.645007 175.405,187.295 C174.624996,185.944993 173.560007,184.880004 172.21,184.1 C170.859993,183.319996 169.375008,182.93 167.755,182.93 C166.134992,182.93 164.650007,183.319996 163.3,184.1 C161.949993,184.880004 160.885004,185.944993 160.105,187.295 C159.324996,188.645007 158.935,190.129992 158.935,191.75 C158.935,193.370008 159.324996,194.854993 160.105,196.205 C160.885004,197.555007 161.949993,198.619996 163.3,199.4 C164.650007,200.180004 166.134992,200.57 167.755,200.57 Z M167.755,199.535 C166.314993,199.535 165.002506,199.190003 163.8175,198.5 C162.632494,197.809997 161.695003,196.872506 161.005,195.6875 C160.314997,194.502494 159.97,193.190007 159.97,191.75 C159.97,190.309993 160.314997,188.997506 161.005,187.8125 C161.695003,186.627494 162.632494,185.690003 163.8175,185 C165.002506,184.309997 166.314993,183.965 167.755,183.965 C169.195007,183.965 170.507494,184.309997 171.6925,185 C172.877506,185.690003 173.814997,186.627494 174.505,187.8125 C175.195003,188.997506 175.54,190.309993 175.54,191.75 C175.54,193.190007 175.195003,194.502494 174.505,195.6875 C173.814997,196.872506 172.877506,197.809997 171.6925,198.5 C170.507494,199.190003 169.195007,199.535 167.755,199.535 Z M167.755,196.97 C169.225007,196.97 170.462495,196.467505 171.4675,195.4625 C172.472505,194.457495 172.975,193.220007 172.975,191.75 C172.975,190.279993 172.472505,189.042505 171.4675,188.0375 C170.462495,187.032495 169.225007,186.53 167.755,186.53 C166.284993,186.53 165.047505,187.032495 164.0425,188.0375 C163.037495,189.042505 162.535,190.279993 162.535,191.75 C162.535,193.220007 163.037495,194.457495 164.0425,195.4625 C165.047505,196.467505 166.284993,196.97 167.755,196.97 Z M181.705,181.985 C181.705,181.444997 181.72,181.085001 181.75,180.905 C181.78,180.724999 181.869999,180.6125 182.02,180.5675 C182.170001,180.5225 182.484998,180.5 182.965,180.5 L184.27,180.5 L184.27,191.75 C184.27,194.690015 184.832494,196.879993 185.9575,198.32 C187.082506,199.760007 188.844988,200.48 191.245,200.48 C193.645012,200.48 195.407494,199.760007 196.5325,198.32 C197.657506,196.879993 198.22,194.690015 198.22,191.75 L198.22,180.5 L199.525,180.5 C200.005002,180.5 200.319999,180.5225 200.47,180.5675 C200.620001,180.6125 200.71,180.724999 200.74,180.905 C200.77,181.085001 200.785,181.444997 200.785,181.985 L200.785,191.75 C200.785,199.220037 197.605032,202.955 191.245,202.955 C188.214985,202.955 185.867508,201.97251 184.2025,200.0075 C182.537492,198.04249 181.705,195.290018 181.705,191.75 L181.705,181.985 Z M186.43,180.5 C186.940003,180.5 187.277499,180.5225 187.4425,180.5675 C187.607501,180.6125 187.7125,180.717499 187.7575,180.8825 C187.8025,181.047501 187.825,181.384997 187.825,181.895 L187.825,191.75 C187.825,193.580009 188.057498,194.884996 188.5225,195.665 C188.987502,196.445004 189.894993,196.835 191.245,196.835 C192.595007,196.835 193.502498,196.445004 193.9675,195.665 C194.432502,194.884996 194.665,193.580009 194.665,191.75 L194.665,181.895 C194.665,181.384997 194.6875,181.047501 194.7325,180.8825 C194.7775,180.717499 194.882499,180.6125 195.0475,180.5675 C195.212501,180.5225 195.549997,180.5 196.06,180.5 L197.23,180.5 L197.23,191.75 C197.23,194.300013 196.765005,196.219994 195.835,197.51 C194.904995,198.800006 193.375011,199.445 191.245,199.445 C189.114989,199.445 187.585005,198.792507 186.655,197.4875 C185.724995,196.182493 185.26,194.270013 185.26,191.75 L185.26,180.5 L186.43,180.5 Z M206.05,180.5 L206.05,203 L205.06,203 C204.489997,203 204.107501,202.97 203.9125,202.91 C203.717499,202.85 203.5975,202.700001 203.5525,202.46 C203.5075,202.219999 203.485,201.725004 203.485,200.975 L203.485,181.985 C203.485,181.444997 203.5,181.085001 203.53,180.905 C203.56,180.724999 203.649999,180.6125 203.8,180.5675 C203.950001,180.5225 204.264998,180.5 204.745,180.5 L206.05,180.5 Z M208.21,180.5 C208.720003,180.5 209.057499,180.5225 209.2225,180.5675 C209.387501,180.6125 209.4925,180.717499 209.5375,180.8825 C209.5825,181.047501 209.605,181.384997 209.605,181.895 L209.605,200.795 C209.605,201.605004 209.5825,202.144999 209.5375,202.415 C209.4925,202.685001 209.372501,202.85 209.1775,202.91 C208.982499,202.97 208.600003,203 208.03,203 L207.04,203 L207.04,180.5 L208.21,180.5 Z M211.63,180.5 C214.300013,180.5 216.452492,180.867496 218.0875,181.6025 C219.722508,182.337504 220.937496,183.529992 221.7325,185.18 C222.527504,186.830008 222.925,189.019986 222.925,191.75 L222.925,201.515 C222.925,202.055003 222.91,202.414999 222.88,202.595 C222.85,202.775001 222.760001,202.8875 222.61,202.9325 C222.459999,202.9775 222.145002,203 221.665,203 L220.36,203 L220.36,191.75 C220.36,189.559989 220.037503,187.820006 219.3925,186.53 C218.747497,185.239994 217.727507,184.317503 216.3325,183.7625 C214.937493,183.207497 213.055012,182.93 210.685,182.93 L210.685,180.95 C210.685,180.709999 210.7225,180.575 210.7975,180.545 C210.8725,180.515 211.149998,180.5 211.63,180.5 Z M210.685,183.965 C212.845011,183.965 214.554994,184.219997 215.815,184.73 C217.075006,185.240003 217.982497,186.057494 218.5375,187.1825 C219.092503,188.307506 219.37,189.82999 219.37,191.75 L219.37,203 L218.2,203 C217.689997,203 217.352501,202.9775 217.1875,202.9325 C217.022499,202.8875 216.9175,202.782501 216.8725,202.6175 C216.8275,202.452499 216.805,202.115003 216.805,201.605 L216.805,191.75 C216.805,190.369993 216.677501,189.335003 216.4225,188.645 C216.167499,187.954997 215.680004,187.452502 214.96,187.1375 C214.239996,186.822498 213.160007,186.635 211.72,186.575 C211.209997,186.545 210.91,186.5075 210.82,186.4625 C210.73,186.4175 210.685,186.290001 210.685,186.08 L210.685,183.965 Z M246.865,171.5 C247.345002,171.5 247.659999,171.5225 247.81,171.5675 C247.960001,171.6125 248.05,171.724999 248.08,171.905 C248.11,172.085001 248.125,172.444997 248.125,172.985 L248.125,191.75 C248.125,194.090012 247.652505,196.107492 246.7075,197.8025 C245.762495,199.497508 244.442508,200.787496 242.7475,201.6725 C241.052492,202.557504 239.095011,203 236.875,203 C234.83499,203 232.952509,202.497505 231.2275,201.4925 C229.502491,200.487495 228.137505,199.122509 227.1325,197.3975 C226.127495,195.672491 225.625,193.79001 225.625,191.75 C225.625,189.70999 226.127495,187.827509 227.1325,186.1025 C228.137505,184.377491 229.502491,183.012505 231.2275,182.0075 C232.952509,181.002495 234.83499,180.5 236.875,180.5 C237.985006,180.5 239.109994,180.664998 240.25,180.995 C240.28,180.995 240.369999,181.0175 240.52,181.0625 C240.670001,181.1075 240.79,181.189999 240.88,181.31 C240.97,181.430001 241.015,181.564999 241.015,181.715 L241.015,184.01 C239.754994,183.289996 238.330008,182.93 236.74,182.93 C235.119992,182.93 233.635007,183.319996 232.285,184.1 C230.934993,184.880004 229.870004,185.944993 229.09,187.295 C228.309996,188.645007 227.92,190.129992 227.92,191.75 C227.92,193.370008 228.309996,194.854993 229.09,196.205 C229.870004,197.555007 230.934993,198.619996 232.285,199.4 C233.635007,200.180004 235.119992,200.57 236.74,200.57 C239.500014,200.57 241.659992,199.812508 243.22,198.2975 C244.780008,196.782492 245.56,194.585014 245.56,191.705 L245.56,171.5 L246.865,171.5 Z M236.74,196.97 C238.480009,196.97 239.792496,196.557504 240.6775,195.7325 C241.562504,194.907496 242.005,193.565009 242.005,191.705 L242.005,172.895 C242.005,172.384997 242.0275,172.047501 242.0725,171.8825 C242.1175,171.717499 242.222499,171.6125 242.3875,171.5675 C242.552501,171.5225 242.889997,171.5 243.4,171.5 L244.57,171.5 L244.57,191.705 C244.57,194.285013 243.887507,196.234993 242.5225,197.555 C241.157493,198.875007 239.245012,199.535 236.785,199.535 C235.344993,199.535 234.032506,199.190003 232.8475,198.5 C231.662494,197.809997 230.725003,196.872506 230.035,195.6875 C229.344997,194.502494 229,193.190007 229,191.75 C229,190.309993 229.344997,188.997506 230.035,187.8125 C230.725003,186.627494 231.662494,185.690003 232.8475,185 C234.032506,184.309997 235.344993,183.965 236.785,183.965 C238.315008,183.965 239.724994,184.369996 241.015,185.18 L241.015,187.79 C241.015,188.090001 240.955001,188.24 240.835,188.24 C240.775,188.24 240.640001,188.165001 240.43,188.015 C239.379995,187.024995 238.150007,186.53 236.74,186.53 C235.269993,186.53 234.032505,187.032495 233.0275,188.0375 C232.022495,189.042505 231.52,190.279993 231.52,191.75 C231.52,193.220007 232.022495,194.457495 233.0275,195.4625 C234.032505,196.467505 235.269993,196.97 236.74,196.97 Z M262.3,199.445 C260.469991,199.445 259.165004,199.43 258.385,199.4 C257.604996,199.37 257.020002,199.272501 256.63,199.1075 C256.239998,198.942499 256.045,198.665002 256.045,198.275 C256.015,197.584997 256.03,197.120001 256.09,196.88 C256.15,196.639999 256.254999,196.415001 256.405,196.205 C256.555001,195.994999 256.66,195.830001 256.72,195.71 L268.915,176.72 C269.335002,176.029997 269.545,175.520002 269.545,175.19 C269.545,174.649997 269.192504,174.327501 268.4875,174.2225 C267.782496,174.117499 266.485009,174.065 264.595,174.065 L252.445,174.065 L252.445,172.76 C252.445,172.279998 252.4675,171.965001 252.5125,171.815 C252.5575,171.664999 252.669999,171.575 252.85,171.545 C253.030001,171.515 253.389997,171.5 253.93,171.5 L265.585,171.5 C268.045012,171.5 269.754995,171.515 270.715,171.545 C271.675005,171.575 272.319998,171.657499 272.65,171.7925 C272.980002,171.927501 273.16,172.159998 273.19,172.49 C273.22,172.940002 273.235,173.449997 273.235,174.02 C273.235,174.440002 273.19,174.769999 273.1,175.01 C273.01,175.250001 272.815001,175.624997 272.515,176.135 L260.275,195.53 C260.004999,196.010002 259.87,196.309999 259.87,196.43 C259.87,196.640001 260.102498,196.7675 260.5675,196.8125 C261.032502,196.8575 262.059992,196.88 263.65,196.88 L271.255,196.88 C271.765003,196.88 272.102499,196.9025 272.2675,196.9475 C272.432501,196.9925 272.5375,197.097499 272.5825,197.2625 C272.6275,197.427501 272.65,197.764997 272.65,198.275 L272.65,199.445 L262.3,199.445 Z M272.65,201.74 C272.65,202.220002 272.6275,202.534999 272.5825,202.685 C272.5375,202.835001 272.425001,202.925 272.245,202.955 C272.064999,202.985 271.705003,203 271.165,203 L260.635,203 C257.694985,203 255.617506,202.97 254.4025,202.91 C253.187494,202.85 252.287503,202.692501 251.7025,202.4375 C251.117497,202.182499 250.825,201.755003 250.825,201.155 L250.825,199.67 C250.825,198.589995 250.884999,197.855002 251.005,197.465 C251.125001,197.074998 251.454997,196.490004 251.995,195.71 L262.975,179.42 C263.035,179.36 263.177499,179.180002 263.4025,178.88 C263.627501,178.579998 263.74,178.325001 263.74,178.115 C263.74,177.784998 263.425003,177.62 262.795,177.62 L253.84,177.62 C253.329997,177.62 252.992501,177.5975 252.8275,177.5525 C252.662499,177.5075 252.5575,177.402501 252.5125,177.2375 C252.4675,177.072499 252.445,176.735003 252.445,176.225 L252.445,175.055 L264.595,175.055 C266.065007,175.055 267.039998,175.085 267.52,175.145 C268.000002,175.205 268.24,175.369999 268.24,175.64 C268.24,175.850001 268.075002,176.209997 267.745,176.72 L255.415,195.665 C255.084998,196.205003 254.8825,196.587499 254.8075,196.8125 C254.7325,197.037501 254.695,197.449997 254.695,198.05 C254.695,198.920004 254.807499,199.497499 255.0325,199.7825 C255.257501,200.067501 255.827495,200.2475 256.7425,200.3225 C257.657505,200.3975 259.509986,200.435 262.3,200.435 L272.65,200.435 L272.65,201.74 Z" id="SoundZ" fill="#FFF9E9" fill-rule="nonzero"></path>
            <path d="M131.35,198.275 C131.35,197.764997 131.3725,197.427501 131.4175,197.2625 C131.4625,197.097499 131.567499,196.9925 131.7325,196.9475 C131.897501,196.9025 132.234997,196.88 132.745,196.88 L142.6,196.88 C144.400009,196.88 145.697496,196.602503 146.4925,196.0475 C147.287504,195.492497 147.685,194.525007 147.685,193.145 C147.685,192.274996 147.355003,191.547503 146.695,190.9625 C146.034997,190.377497 145.045007,190.07 143.725,190.04 C140.934986,189.95 138.647509,189.605003 136.8625,189.005 C135.077491,188.404997 133.712505,187.407507 132.7675,186.0125 C131.822495,184.617493 131.35,182.720012 131.35,180.32 C131.35,177.589986 132.279991,175.437508 134.14,173.8625 C136.000009,172.287492 138.804981,171.5 142.555,171.5 L152.32,171.5 C152.860003,171.5 153.219999,171.515 153.4,171.545 C153.580001,171.575 153.6925,171.664999 153.7375,171.815 C153.7825,171.965001 153.805,172.279998 153.805,172.76 L153.805,174.065 L142.555,174.065 C139.674986,174.065 137.500007,174.604995 136.03,175.685 C134.559993,176.765005 133.825,178.30999 133.825,180.32 C133.825,182.840013 134.522493,184.654994 135.9175,185.765 C137.312507,186.875006 139.539985,187.489999 142.6,187.61 C145.180013,187.7 147.107494,188.277495 148.3825,189.3425 C149.657506,190.407505 150.295,191.839991 150.295,193.64 C150.295,195.74001 149.650006,197.232496 148.36,198.1175 C147.069994,199.002504 145.150013,199.445 142.6,199.445 L131.35,199.445 L131.35,198.275 Z M142.6,200.435 C145.570015,200.435 147.767493,199.902505 149.1925,198.8375 C150.617507,197.772495 151.33,196.040012 151.33,193.64 C151.33,191.209988 150.617507,189.440006 149.1925,188.33 C147.767493,187.219994 145.555015,186.590001 142.555,186.44 C140.004987,186.44 138.085006,185.975005 136.795,185.045 C135.504994,184.114995 134.86,182.540011 134.86,180.32 C134.86,178.579991 135.519993,177.267504 136.84,176.3825 C138.160007,175.497496 140.064988,175.055 142.555,175.055 L153.805,175.055 L153.805,176.225 C153.805,176.735003 153.7825,177.072499 153.7375,177.2375 C153.6925,177.402501 153.587501,177.5075 153.4225,177.5525 C153.257499,177.5975 152.920003,177.62 152.41,177.62 L142.555,177.62 C140.784991,177.62 139.495004,177.837498 138.685,178.2725 C137.874996,178.707502 137.47,179.389995 137.47,180.32 C137.47,181.550006 137.844996,182.457497 138.595,183.0425 C139.345004,183.627503 140.664991,183.95 142.555,184.01 C145.105013,184.1 147.189992,184.429997 148.81,185 C150.430008,185.570003 151.667496,186.544993 152.5225,187.925 C153.377504,189.305007 153.805,191.209988 153.805,193.64 C153.805,196.670015 152.83001,198.987492 150.88,200.5925 C148.92999,202.197508 146.170018,203 142.6,203 L132.835,203 C132.294997,203 131.935001,202.985 131.755,202.955 C131.574999,202.925 131.4625,202.835001 131.4175,202.685 C131.3725,202.534999 131.35,202.220002 131.35,201.74 L131.35,200.435 L142.6,200.435 Z M167.755,203 C165.71499,203 163.832509,202.497505 162.1075,201.4925 C160.382491,200.487495 159.017505,199.122509 158.0125,197.3975 C157.007495,195.672491 156.505,193.79001 156.505,191.75 C156.505,189.70999 157.007495,187.827509 158.0125,186.1025 C159.017505,184.377491 160.382491,183.012505 162.1075,182.0075 C163.832509,181.002495 165.71499,180.5 167.755,180.5 C169.79501,180.5 171.677491,181.002495 173.4025,182.0075 C175.127509,183.012505 176.492495,184.377491 177.4975,186.1025 C178.502505,187.827509 179.005,189.70999 179.005,191.75 C179.005,193.79001 178.502505,195.672491 177.4975,197.3975 C176.492495,199.122509 175.127509,200.487495 173.4025,201.4925 C171.677491,202.497505 169.79501,203 167.755,203 Z M167.755,200.57 C169.375008,200.57 170.859993,200.180004 172.21,199.4 C173.560007,198.619996 174.624996,197.555007 175.405,196.205 C176.185004,194.854993 176.575,193.370008 176.575,191.75 C176.575,190.129992 176.185004,188.645007 175.405,187.295 C174.624996,185.944993 173.560007,184.880004 172.21,184.1 C170.859993,183.319996 169.375008,182.93 167.755,182.93 C166.134992,182.93 164.650007,183.319996 163.3,184.1 C161.949993,184.880004 160.885004,185.944993 160.105,187.295 C159.324996,188.645007 158.935,190.129992 158.935,191.75 C158.935,193.370008 159.324996,194.854993 160.105,196.205 C160.885004,197.555007 161.949993,198.619996 163.3,199.4 C164.650007,200.180004 166.134992,200.57 167.755,200.57 Z M167.755,199.535 C166.314993,199.535 165.002506,199.190003 163.8175,198.5 C162.632494,197.809997 161.695003,196.872506 161.005,195.6875 C160.314997,194.502494 159.97,193.190007 159.97,191.75 C159.97,190.309993 160.314997,188.997506 161.005,187.8125 C161.695003,186.627494 162.632494,185.690003 163.8175,185 C165.002506,184.309997 166.314993,183.965 167.755,183.965 C169.195007,183.965 170.507494,184.309997 171.6925,185 C172.877506,185.690003 173.814997,186.627494 174.505,187.8125 C175.195003,188.997506 175.54,190.309993 175.54,191.75 C175.54,193.190007 175.195003,194.502494 174.505,195.6875 C173.814997,196.872506 172.877506,197.809997 171.6925,198.5 C170.507494,199.190003 169.195007,199.535 167.755,199.535 Z M167.755,196.97 C169.225007,196.97 170.462495,196.467505 171.4675,195.4625 C172.472505,194.457495 172.975,193.220007 172.975,191.75 C172.975,190.279993 172.472505,189.042505 171.4675,188.0375 C170.462495,187.032495 169.225007,186.53 167.755,186.53 C166.284993,186.53 165.047505,187.032495 164.0425,188.0375 C163.037495,189.042505 162.535,190.279993 162.535,191.75 C162.535,193.220007 163.037495,194.457495 164.0425,195.4625 C165.047505,196.467505 166.284993,196.97 167.755,196.97 Z M181.705,181.985 C181.705,181.444997 181.72,181.085001 181.75,180.905 C181.78,180.724999 181.869999,180.6125 182.02,180.5675 C182.170001,180.5225 182.484998,180.5 182.965,180.5 L184.27,180.5 L184.27,191.75 C184.27,194.690015 184.832494,196.879993 185.9575,198.32 C187.082506,199.760007 188.844988,200.48 191.245,200.48 C193.645012,200.48 195.407494,199.760007 196.5325,198.32 C197.657506,196.879993 198.22,194.690015 198.22,191.75 L198.22,180.5 L199.525,180.5 C200.005002,180.5 200.319999,180.5225 200.47,180.5675 C200.620001,180.6125 200.71,180.724999 200.74,180.905 C200.77,181.085001 200.785,181.444997 200.785,181.985 L200.785,191.75 C200.785,199.220037 197.605032,202.955 191.245,202.955 C188.214985,202.955 185.867508,201.97251 184.2025,200.0075 C182.537492,198.04249 181.705,195.290018 181.705,191.75 L181.705,181.985 Z M186.43,180.5 C186.940003,180.5 187.277499,180.5225 187.4425,180.5675 C187.607501,180.6125 187.7125,180.717499 187.7575,180.8825 C187.8025,181.047501 187.825,181.384997 187.825,181.895 L187.825,191.75 C187.825,193.580009 188.057498,194.884996 188.5225,195.665 C188.987502,196.445004 189.894993,196.835 191.245,196.835 C192.595007,196.835 193.502498,196.445004 193.9675,195.665 C194.432502,194.884996 194.665,193.580009 194.665,191.75 L194.665,181.895 C194.665,181.384997 194.6875,181.047501 194.7325,180.8825 C194.7775,180.717499 194.882499,180.6125 195.0475,180.5675 C195.212501,180.5225 195.549997,180.5 196.06,180.5 L197.23,180.5 L197.23,191.75 C197.23,194.300013 196.765005,196.219994 195.835,197.51 C194.904995,198.800006 193.375011,199.445 191.245,199.445 C189.114989,199.445 187.585005,198.792507 186.655,197.4875 C185.724995,196.182493 185.26,194.270013 185.26,191.75 L185.26,180.5 L186.43,180.5 Z M206.05,180.5 L206.05,203 L205.06,203 C204.489997,203 204.107501,202.97 203.9125,202.91 C203.717499,202.85 203.5975,202.700001 203.5525,202.46 C203.5075,202.219999 203.485,201.725004 203.485,200.975 L203.485,181.985 C203.485,181.444997 203.5,181.085001 203.53,180.905 C203.56,180.724999 203.649999,180.6125 203.8,180.5675 C203.950001,180.5225 204.264998,180.5 204.745,180.5 L206.05,180.5 Z M208.21,180.5 C208.720003,180.5 209.057499,180.5225 209.2225,180.5675 C209.387501,180.6125 209.4925,180.717499 209.5375,180.8825 C209.5825,181.047501 209.605,181.384997 209.605,181.895 L209.605,200.795 C209.605,201.605004 209.5825,202.144999 209.5375,202.415 C209.4925,202.685001 209.372501,202.85 209.1775,202.91 C208.982499,202.97 208.600003,203 208.03,203 L207.04,203 L207.04,180.5 L208.21,180.5 Z M211.63,180.5 C214.300013,180.5 216.452492,180.867496 218.0875,181.6025 C219.722508,182.337504 220.937496,183.529992 221.7325,185.18 C222.527504,186.830008 222.925,189.019986 222.925,191.75 L222.925,201.515 C222.925,202.055003 222.91,202.414999 222.88,202.595 C222.85,202.775001 222.760001,202.8875 222.61,202.9325 C222.459999,202.9775 222.145002,203 221.665,203 L220.36,203 L220.36,191.75 C220.36,189.559989 220.037503,187.820006 219.3925,186.53 C218.747497,185.239994 217.727507,184.317503 216.3325,183.7625 C214.937493,183.207497 213.055012,182.93 210.685,182.93 L210.685,180.95 C210.685,180.709999 210.7225,180.575 210.7975,180.545 C210.8725,180.515 211.149998,180.5 211.63,180.5 Z M210.685,183.965 C212.845011,183.965 214.554994,184.219997 215.815,184.73 C217.075006,185.240003 217.982497,186.057494 218.5375,187.1825 C219.092503,188.307506 219.37,189.82999 219.37,191.75 L219.37,203 L218.2,203 C217.689997,203 217.352501,202.9775 217.1875,202.9325 C217.022499,202.8875 216.9175,202.782501 216.8725,202.6175 C216.8275,202.452499 216.805,202.115003 216.805,201.605 L216.805,191.75 C216.805,190.369993 216.677501,189.335003 216.4225,188.645 C216.167499,187.954997 215.680004,187.452502 214.96,187.1375 C214.239996,186.822498 213.160007,186.635 211.72,186.575 C211.209997,186.545 210.91,186.5075 210.82,186.4625 C210.73,186.4175 210.685,186.290001 210.685,186.08 L210.685,183.965 Z M246.865,171.5 C247.345002,171.5 247.659999,171.5225 247.81,171.5675 C247.960001,171.6125 248.05,171.724999 248.08,171.905 C248.11,172.085001 248.125,172.444997 248.125,172.985 L248.125,191.75 C248.125,194.090012 247.652505,196.107492 246.7075,197.8025 C245.762495,199.497508 244.442508,200.787496 242.7475,201.6725 C241.052492,202.557504 239.095011,203 236.875,203 C234.83499,203 232.952509,202.497505 231.2275,201.4925 C229.502491,200.487495 228.137505,199.122509 227.1325,197.3975 C226.127495,195.672491 225.625,193.79001 225.625,191.75 C225.625,189.70999 226.127495,187.827509 227.1325,186.1025 C228.137505,184.377491 229.502491,183.012505 231.2275,182.0075 C232.952509,181.002495 234.83499,180.5 236.875,180.5 C237.985006,180.5 239.109994,180.664998 240.25,180.995 C240.28,180.995 240.369999,181.0175 240.52,181.0625 C240.670001,181.1075 240.79,181.189999 240.88,181.31 C240.97,181.430001 241.015,181.564999 241.015,181.715 L241.015,184.01 C239.754994,183.289996 238.330008,182.93 236.74,182.93 C235.119992,182.93 233.635007,183.319996 232.285,184.1 C230.934993,184.880004 229.870004,185.944993 229.09,187.295 C228.309996,188.645007 227.92,190.129992 227.92,191.75 C227.92,193.370008 228.309996,194.854993 229.09,196.205 C229.870004,197.555007 230.934993,198.619996 232.285,199.4 C233.635007,200.180004 235.119992,200.57 236.74,200.57 C239.500014,200.57 241.659992,199.812508 243.22,198.2975 C244.780008,196.782492 245.56,194.585014 245.56,191.705 L245.56,171.5 L246.865,171.5 Z M236.74,196.97 C238.480009,196.97 239.792496,196.557504 240.6775,195.7325 C241.562504,194.907496 242.005,193.565009 242.005,191.705 L242.005,172.895 C242.005,172.384997 242.0275,172.047501 242.0725,171.8825 C242.1175,171.717499 242.222499,171.6125 242.3875,171.5675 C242.552501,171.5225 242.889997,171.5 243.4,171.5 L244.57,171.5 L244.57,191.705 C244.57,194.285013 243.887507,196.234993 242.5225,197.555 C241.157493,198.875007 239.245012,199.535 236.785,199.535 C235.344993,199.535 234.032506,199.190003 232.8475,198.5 C231.662494,197.809997 230.725003,196.872506 230.035,195.6875 C229.344997,194.502494 229,193.190007 229,191.75 C229,190.309993 229.344997,188.997506 230.035,187.8125 C230.725003,186.627494 231.662494,185.690003 232.8475,185 C234.032506,184.309997 235.344993,183.965 236.785,183.965 C238.315008,183.965 239.724994,184.369996 241.015,185.18 L241.015,187.79 C241.015,188.090001 240.955001,188.24 240.835,188.24 C240.775,188.24 240.640001,188.165001 240.43,188.015 C239.379995,187.024995 238.150007,186.53 236.74,186.53 C235.269993,186.53 234.032505,187.032495 233.0275,188.0375 C232.022495,189.042505 231.52,190.279993 231.52,191.75 C231.52,193.220007 232.022495,194.457495 233.0275,195.4625 C234.032505,196.467505 235.269993,196.97 236.74,196.97 Z M262.3,199.445 C260.469991,199.445 259.165004,199.43 258.385,199.4 C257.604996,199.37 257.020002,199.272501 256.63,199.1075 C256.239998,198.942499 256.045,198.665002 256.045,198.275 C256.015,197.584997 256.03,197.120001 256.09,196.88 C256.15,196.639999 256.254999,196.415001 256.405,196.205 C256.555001,195.994999 256.66,195.830001 256.72,195.71 L268.915,176.72 C269.335002,176.029997 269.545,175.520002 269.545,175.19 C269.545,174.649997 269.192504,174.327501 268.4875,174.2225 C267.782496,174.117499 266.485009,174.065 264.595,174.065 L252.445,174.065 L252.445,172.76 C252.445,172.279998 252.4675,171.965001 252.5125,171.815 C252.5575,171.664999 252.669999,171.575 252.85,171.545 C253.030001,171.515 253.389997,171.5 253.93,171.5 L265.585,171.5 C268.045012,171.5 269.754995,171.515 270.715,171.545 C271.675005,171.575 272.319998,171.657499 272.65,171.7925 C272.980002,171.927501 273.16,172.159998 273.19,172.49 C273.22,172.940002 273.235,173.449997 273.235,174.02 C273.235,174.440002 273.19,174.769999 273.1,175.01 C273.01,175.250001 272.815001,175.624997 272.515,176.135 L260.275,195.53 C260.004999,196.010002 259.87,196.309999 259.87,196.43 C259.87,196.640001 260.102498,196.7675 260.5675,196.8125 C261.032502,196.8575 262.059992,196.88 263.65,196.88 L271.255,196.88 C271.765003,196.88 272.102499,196.9025 272.2675,196.9475 C272.432501,196.9925 272.5375,197.097499 272.5825,197.2625 C272.6275,197.427501 272.65,197.764997 272.65,198.275 L272.65,199.445 L262.3,199.445 Z M272.65,201.74 C272.65,202.220002 272.6275,202.534999 272.5825,202.685 C272.5375,202.835001 272.425001,202.925 272.245,202.955 C272.064999,202.985 271.705003,203 271.165,203 L260.635,203 C257.694985,203 255.617506,202.97 254.4025,202.91 C253.187494,202.85 252.287503,202.692501 251.7025,202.4375 C251.117497,202.182499 250.825,201.755003 250.825,201.155 L250.825,199.67 C250.825,198.589995 250.884999,197.855002 251.005,197.465 C251.125001,197.074998 251.454997,196.490004 251.995,195.71 L262.975,179.42 C263.035,179.36 263.177499,179.180002 263.4025,178.88 C263.627501,178.579998 263.74,178.325001 263.74,178.115 C263.74,177.784998 263.425003,177.62 262.795,177.62 L253.84,177.62 C253.329997,177.62 252.992501,177.5975 252.8275,177.5525 C252.662499,177.5075 252.5575,177.402501 252.5125,177.2375 C252.4675,177.072499 252.445,176.735003 252.445,176.225 L252.445,175.055 L264.595,175.055 C266.065007,175.055 267.039998,175.085 267.52,175.145 C268.000002,175.205 268.24,175.369999 268.24,175.64 C268.24,175.850001 268.075002,176.209997 267.745,176.72 L255.415,195.665 C255.084998,196.205003 254.8825,196.587499 254.8075,196.8125 C254.7325,197.037501 254.695,197.449997 254.695,198.05 C254.695,198.920004 254.807499,199.497499 255.0325,199.7825 C255.257501,200.067501 255.827495,200.2475 256.7425,200.3225 C257.657505,200.3975 259.509986,200.435 262.3,200.435 L272.65,200.435 L272.65,201.74 Z" id="SoundZ" fill="#FFF9E9" fill-rule="nonzero"></path>
        </g>
    </g>
</svg>